# xmcd CD database file
#
# Track frame offsets:
#	150
#	13127
#	30975
#	48302
#	66307
#	78362
#	97285
#	110262
#	128107
#	145437
#	163442
#	175495
#
# Disc length: 2589 seconds
#
# Revision: 0
# Processed by: cddbd v1.5.1PL0 Copyright (c) Steve Scherf et al.
# Submitted via: CDex 1.50
#
DISCID=ab0a1b0c
DTITLE=UP STEADY - SPLASH
DYEAR=2005
DGENRE=Pop
TTITLE0=Highway Drive
TTITLE1=サプリ
TTITLE2=Happy Sunday
TTITLE3=My treasure
TTITLE4=ガーリー・デイ
TTITLE5=エナジー
TTITLE6=Highway Drive
TTITLE7=サプリ
TTITLE8=Happy Sunday
TTITLE9=My Treasure
TTITLE10=ガーリー・デイ
TTITLE11=エナジー
EXTD=YEAR: 2005
EXTT0=
EXTT1=
EXTT2=
EXTT3=
EXTT4=
EXTT5=
EXTT6=
EXTT7=
EXTT8=
EXTT9=
EXTT10=
EXTT11=
PLAYORDER=
